<svg xmlns="http://www.w3.org/2000/svg" xmlns:xlink="http://www.w3.org/1999/xlink" fill="none" version="1.1" width="60" height="60" viewBox="0 0 60 60"><defs><clipPath id="master_svg0_397_3231"><rect x="0" y="0" width="60" height="60" rx="0"/></clipPath><linearGradient x1="0" y1="0.5" x2="1" y2="0.5" id="master_svg1_397_3339"><stop offset="0%" stop-color="#0E8384" stop-opacity="1"/><stop offset="100%" stop-color="#0E8384" stop-opacity="0"/></linearGradient><linearGradient x1="0" y1="0.5" x2="1" y2="0.5" id="master_svg2_397_3339"><stop offset="0%" stop-color="#0E8384" stop-opacity="1"/><stop offset="100%" stop-color="#0E8384" stop-opacity="0"/></linearGradient></defs><g clip-path="url(#master_svg0_397_3231)"><g><rect x="50" y="12" width="10" height="10" rx="0" fill="#32C5C7" fill-opacity="1"/></g><g><rect x="0" y="12" width="36" height="10" rx="0" fill="#32C5C7" fill-opacity="1"/></g><g transform="matrix(0,1,-1,0,46,2)"><rect x="22" y="24" width="36" height="10" rx="0" fill="url(#master_svg1_397_3339)" fill-opacity="1"/></g><g transform="matrix(0,1,-1,0,22,-22)"><rect x="22" y="0" width="10" height="10" rx="0" fill="#0E8384" fill-opacity="1"/></g><g><rect x="0" y="38" width="10" height="10" rx="0" fill="#32C5C7" fill-opacity="1"/></g><g><rect x="24" y="38" width="36" height="10" rx="0" fill="#32C5C7" fill-opacity="1"/></g><g transform="matrix(0,1,-1,0,98,2)"><rect x="48" y="50" width="10" height="10" rx="0" fill="#0E8384" fill-opacity="1"/></g><g transform="matrix(0,-1,-1,0,83,83)"><rect x="48" y="35" width="35" height="10" rx="0" fill="url(#master_svg2_397_3339)" fill-opacity="1"/></g></g></svg>