<svg xmlns="http://www.w3.org/2000/svg" xmlns:xlink="http://www.w3.org/1999/xlink" fill="none" version="1.1" width="90" height="90" viewBox="0 0 90 90"><defs><clipPath id="master_svg0_445_6918"><rect x="15" y="15" width="60" height="60" rx="0"/></clipPath><linearGradient x1="0" y1="0.5" x2="1" y2="0.5" id="master_svg1_397_3339"><stop offset="0%" stop-color="#0E8384" stop-opacity="1"/><stop offset="100%" stop-color="#0E8384" stop-opacity="0"/></linearGradient><linearGradient x1="0" y1="0.5" x2="1" y2="0.5" id="master_svg2_397_3339"><stop offset="0%" stop-color="#0E8384" stop-opacity="1"/><stop offset="100%" stop-color="#0E8384" stop-opacity="0"/></linearGradient></defs><g><rect x="0" y="0" width="90" height="90" rx="18" fill="#FFFFFF" fill-opacity="1"/><g clip-path="url(#master_svg0_445_6918)"><rect x="65" y="27" width="10" height="10" rx="0" fill="#32C5C7" fill-opacity="1"/><rect x="15" y="27" width="36" height="10" rx="0" fill="#32C5C7" fill-opacity="1"/><rect x="37" y="39" width="36" height="10" rx="0" fill="url(#master_svg1_397_3339)" fill-opacity="1" transform="matrix(0,1,-1,0,76,2)"/><rect x="37" y="15" width="10" height="10" rx="0" fill="#0E8384" fill-opacity="1" transform="matrix(0,1,-1,0,52,-22)"/><rect x="15" y="53" width="10" height="10" rx="0" fill="#32C5C7" fill-opacity="1"/><rect x="39" y="53" width="36" height="10" rx="0" fill="#32C5C7" fill-opacity="1"/><rect x="63" y="65" width="10" height="10" rx="0" fill="#0E8384" fill-opacity="1" transform="matrix(0,1,-1,0,128,2)"/><rect x="63" y="50" width="35" height="10" rx="0" fill="url(#master_svg2_397_3339)" fill-opacity="1" transform="matrix(0,-1,-1,0,113,113)"/></g></g></svg>