<svg viewBox="0 0 85.33 85.33" xmlns="http://www.w3.org/2000/svg"><defs><clipPath id="master_svg0_78_1563"><rect x="0" y="0" width="85.33000183105469" height="85.32999420166016" rx="10" /></clipPath><clipPath id="master_svg1_79_0824"><rect x="103.33000183105469" y="-2" width="89.33000183105469" height="89.32999420166016" rx="12" /></clipPath><clipPath id="master_svg2_79_0849"><rect x="110.99992370605469" y="11.297119140625" width="59.199989318847656" height="59.199989318847656" rx="0" /></clipPath><clipPath id="master_svg3_79_0856"><rect x="208.66000366210938" y="-2" width="89.33000183105469" height="89.32999420166016" rx="12" /></clipPath><clipPath id="master_svg4_79_0884"><rect x="285.0308532714844" y="10.7923583984375" width="59.626407623291016" height="59.626407623291016" rx="0" /></clipPath><clipPath id="master_svg5_79_0893"><rect x="313.989990234375" y="-2" width="89.33000183105469" height="89.32999420166016" rx="12" /></clipPath><clipPath id="master_svg6_79_0949"><rect x="419.32000732421875" y="-2" width="89.33000183105469" height="89.32999420166016" rx="12" /></clipPath><clipPath id="master_svg7_79_0965"><rect x="443.99993896484375" y="27" width="34" height="34" rx="0" /></clipPath><clipPath id="master_svg8_78_2112"><rect x="523.6500244140625" y="-3" width="91.33000183105469" height="91.32999420166016" rx="13" /></clipPath><clipPath id="master_svg9_79_0768"><rect x="-3" y="102.32999420166016" width="91.33000183105469" height="91.32999420166016" rx="13" /></clipPath><clipPath id="master_svga_79_0785"><rect x="102.33000183105469" y="102.32999420166016" width="91.33000183105469" height="91.32999420166016" rx="13" /></clipPath><clipPath id="master_svgb_79_0802"><rect x="207.66000366210938" y="102.32999420166016" width="91.33000183105469" height="91.32999420166016" rx="13" /></clipPath><clipPath id="master_svgc_79_1151"><rect x="312.489990234375" y="101.82999420166016" width="92.33000183105469" height="92.32999420166016" rx="13.5" /></clipPath><clipPath id="master_svgd_79_0990"><rect x="419.32000732421875" y="103.32999420166016" width="89.33000183105469" height="89.32999420166016" rx="12" /></clipPath><clipPath id="master_svge_78_1937"><rect x="522.6500244140625" y="101.32999420166016" width="93.33000183105469" height="93.32999420166016" rx="14" /></clipPath><clipPath id="master_svgf_78_1973"><rect x="-4" y="206.6599884033203" width="93.33000183105469" height="93.32999420166016" rx="14" /></clipPath><clipPath id="master_svgg_79_0744"><rect x="102.33001708984375" y="207.6599884033203" width="91.33000183105469" height="91.32999420166016" rx="13" /></clipPath><clipPath id="master_svgh_78_2028"><rect x="207.66001892089844" y="207.66000366210938" width="91.33000183105469" height="91.32999420166016" rx="13" /></clipPath><clipPath id="master_svgi_79_1021"><rect x="311.9900207519531" y="206.6599884033203" width="93.33000183105469" height="93.32999420166016" rx="14" /></clipPath><clipPath id="master_svgj_79_1021"><rect x="315.9900207519531" y="210.6599884033203" width="85.33000183105469" height="85.32999420166016" rx="10" /></clipPath><mask id="master_svgk_79_1028" style="mask-type:alpha" maskUnits="userSpaceOnUse" x="350.6599426269531" y="212.6599884033203" width="50" height="50"><path d="M350.6599426269531,224.56475040332032L388.7551806269531,262.6599884033203L400.6599426269531,236.46951340332032L395.8980366269531,212.6599884033203L364.9456566269531,215.04094080332032L350.6599426269531,224.56475040332032Z" fill="currentColor" fill-opacity="1" /></mask><clipPath id="master_svgl_78_1954"><rect x="421.32000732421875" y="210.66000366210938" width="85.33000183105469" height="85.32999420166016" rx="10" /></clipPath></defs><g transform="translate(-421.32 -210.66)"><g clip-path="url(#master_svgl_78_1954)"><path d="M449.27374273828127,234.66000366210938C452.58745173828123,234.66000366210938,455.27374273828127,231.97371296210937,455.27374273828127,228.66000366210938C455.27374273828127,225.34629486210937,452.58745173828123,222.66000366210938,449.27374273828127,222.66000366210938C445.96003373828125,222.66000366210938,443.27374273828127,225.34629486210937,443.27374273828127,228.66000366210938C443.27374273828127,231.97371296210937,445.96003373828125,234.66000366210938,449.27374273828127,234.66000366210938ZM475.27374273828127,234.66000366210938C478.58745173828123,234.66000366210938,481.27374273828127,231.97371296210937,481.27374273828127,228.66000366210938C481.27374273828127,225.34629486210937,478.58745173828123,222.66000366210938,475.27374273828127,222.66000366210938C471.96003373828125,222.66000366210938,469.27374273828127,225.34629486210937,469.27374273828127,228.66000366210938C469.27374273828127,231.97371296210937,471.96003373828125,234.66000366210938,475.27374273828127,234.66000366210938ZM486.52528373828125,253.7260546621094L485.44150973828124,244.89942766210936Q487.44611373828127,247.76950666210936,487.82227373828124,249.65030466210936L488.17291673828123,251.40354966210938L487.95763373828123,251.44150966210938C487.41374173828126,251.53741266210938,487.05057173828123,252.0560726621094,487.14647673828125,252.59996566210938L487.32012573828126,253.58477366210937L486.59077473828125,253.71337666210937C486.56887473828124,253.71723966210936,486.5470427382812,253.72146566210938,486.52528373828125,253.7260546621094ZM473.76648373828124,248.28011466210938L475.1500667382812,259.54847366210936L472.90217973828123,264.4765286621094L469.83393073828125,279.56207666210935L469.23598873828126,282.5018956621094L475.11563473828124,283.6977576621094L475.71355473828123,280.7579306621094L478.64530573828125,266.34347866210936L481.44359973828125,260.20875566210935L483.42514073828124,268.13490266210937L489.02779773828127,280.8682176621094L490.2360077382813,283.6141816621094L495.7279207382812,281.1977386621094L494.5196877382813,278.4517896621094L489.12234473828124,266.1851046621094L488.46055573828124,263.5379486621094L496.98315473828126,262.03518666210937C497.50553173828126,261.94308066210937,497.96992473828124,261.6472286621094,498.27416273828123,261.21271466210936C498.57840773828127,260.77821366210935,498.69758573828125,260.2406466621094,498.60547673828125,259.71827666210936L497.56358373828124,253.80942966210938C497.47147373828125,253.28705766210936,497.17562873828126,252.82266766210938,496.74111973828127,252.51842266210937C496.30661773828126,252.21417666210937,495.76905073828124,252.0949996621094,495.24667373828123,252.18710866210938L494.51734173828123,252.31570966210938L494.3436927382812,251.33090166210937C494.29763773828125,251.06971366210936,494.14971173828127,250.83751866210937,493.93245673828125,250.68539666210938C493.71520573828127,250.53327766210938,493.4464227382812,250.47368966210936,493.1852377382813,250.51974266210937L493.0982627382813,250.53507966210938L492.7251777382813,248.66971966210937Q492.11993373828125,245.64352066210938,489.3078727382813,241.70687066210937Q486.49042173828127,237.76266866210938,480.76047473828123,235.98918366210938C479.6821977382813,235.54300166210936,478.4773367382812,235.36072666210939,477.23644273828126,235.51308966210937C475.23313473828125,235.75906466210938,473.65280873828124,237.15799866210938,473.07877773828125,238.96329266210938C473.01004373828124,239.08935966210936,472.9523007382812,239.22111366210936,472.90618473828124,239.35709166210938Q471.2670327382813,244.19048466210938,469.29030573828123,245.64768966210937Q467.08796673828124,247.27120766210936,465.18741573828123,247.72973266210937L462.75713173828126,248.31604766210938L463.9297867382812,253.1766146621094L466.36006973828125,252.59027466210938Q469.2421307382813,251.89495066210938,472.25717973828125,249.67232166210937Q473.0441817382813,249.09215766210937,473.76648373828124,248.28011466210938ZM447.39024173828125,235.76749666210938C443.3422297382813,235.27046366210936,439.65774393828127,238.14909966210936,439.16071033828126,242.19711066210937L437.85340973828124,252.84421966210937L432.33809327828124,279.0419726621094L431.72004556655924,281.9776306621094L437.59137103828124,283.2136996621094L438.20939203828124,280.27803466210935L442.61294573828127,259.36115666210935L443.68992173828127,259.4933926621094L447.31887073828125,280.1783976621094L447.83725973828126,283.1332896621094L453.74702873828124,282.0964886621094L453.22861473828124,279.1416056621094L449.39656273828126,257.2989156621094L450.47969273828124,248.4775086621094Q451.11047773828125,249.17116366210936,451.79030373828124,249.67231766210938Q454.80535873828126,251.89495466210937,457.6874177382812,252.59027466210938L460.11769873828126,253.1766146621094L461.2903537382812,248.31604766210938L458.86006773828126,247.72973066210938Q456.95952073828124,247.27120766210936,454.75717973828125,245.64768766210938Q452.9410877382812,244.30890266210938,451.38647873828126,239.61983866210937C451.07096273828125,237.63967866210936,449.47989473828125,236.02407366210937,447.39024173828125,235.76749666210938ZM493.53253573828124,252.48935866210937L488.30493173828125,253.41112566210938L488.13128273828124,252.42631766210937L493.3588867382812,251.50455066210938L493.53253573828124,252.48935866210937Z" fill-rule="evenodd" fill="currentColor" fill-opacity="1" /><rect x="422.82000732421875" y="212.16000366210938" width="82.33000183105469" height="82.32999420166016" rx="8.5" fill-opacity="0" stroke-opacity="1" stroke="currentColor" fill="none" stroke-width="3" /></g></g></svg>